<svg width="397" height="62" viewBox="0 0 397 62" fill="none" xmlns="http://www.w3.org/2000/svg">
<g clip-path="url(#clip0_2002_357)">
<path d="M73.6486 0.116455H0.863281V61.6615H73.6486V0.116455Z" fill="#FF267E"/>
<path d="M25.7786 28.1224H49.8718L37.8252 6.92236L25.7786 28.1224ZM22.3718 49.3699H37.8252L25.7786 28.1224H10.3252L22.3718 49.3699ZM37.8252 49.3699H53.2787L65.3252 28.1224H49.8718L37.8252 49.3699Z" fill="#000055"/>
<path d="M397 0H72.0005V62H397V0Z" fill="#FF267E"/>
<path d="M123.946 29.5451H99.1649V22.3677H129.123V12.4396H84.8022V49.4014H99.1649V39.4732H123.946V29.5451Z" fill="#000055"/>
<path d="M201.521 37.0465L188.376 12.4396H171.895L193.229 49.4014H209.608L230.934 12.4396H214.675L201.521 37.0465Z" fill="#000055"/>
<path d="M276.393 30.6281C280.14 28.81 281.895 25.9249 281.895 22.6761C281.895 16.6054 276.773 12.4318 266.687 12.4318H234.23V49.4015H267.43C278.251 49.4015 283.057 45.1251 283.057 38.9437C283.057 35.4894 280.962 32.3513 276.393 30.6281ZM248.229 21.3086H264.26C266.11 21.3086 267.43 22.4706 267.43 24.1068C267.43 25.7431 266.11 26.905 264.26 26.905H248.229V21.3086ZM265.422 40.5325H248.229V34.9361H265.422C267.272 34.9361 268.592 36.0981 268.592 37.7343C268.592 39.3706 267.272 40.5325 265.422 40.5325Z" fill="#000055"/>
<path d="M303.672 34.9281H328.398V26.905H303.672V22.3677H331.006V12.4396H289.302V49.4014H331.662V39.4732H303.672V34.9281Z" fill="#000055"/>
<path d="M337.014 12.4396V22.3677H353.131V49.4014H367.652V22.3677H383.769V12.4396H337.014Z" fill="#000055"/>
<path d="M145.264 12.4396L123.93 49.4014H139.193L142.079 43.9551H164.875L167.761 49.4014H183.657L162.322 12.4396H145.264ZM147.169 34.3511L153.477 22.4547L159.785 34.3511H147.169Z" fill="#000055"/>
</g>
<defs>
<clipPath id="clip0_2002_357">
<rect width="395.229" height="61.545" fill="white" transform="translate(0.863281 0.116455)"/>
</clipPath>
</defs>
</svg>
